<mxfile host="app.diagrams.net" modified="2021-07-31T19:01:10.366Z" agent="5.0 (Windows NT 10.0; Win64; x64) AppleWebKit/537.36 (KHTML, like Gecko) Chrome/92.0.4515.107 Safari/537.36" etag="okut050wCoonouMF0EiU" version="14.8.6" type="github">
  <diagram id="_G_KSSuLEcDkvxsDeoga" name="Page-1">
    <mxGraphModel dx="1278" dy="556" grid="1" gridSize="10" guides="1" tooltips="1" connect="1" arrows="1" fold="1" page="1" pageScale="1" pageWidth="850" pageHeight="1100" math="0" shadow="0">
      <root>
        <mxCell id="0" />
        <mxCell id="1" parent="0" />
        <mxCell id="RTjLb2B1KZEINLzgVu64-1" value="" style="aspect=fixed;html=1;points=[];align=center;image;fontSize=12;image=img/lib/azure2/management_governance/User_Privacy.svg;" vertex="1" parent="1">
          <mxGeometry x="40" y="211" width="64" height="68" as="geometry" />
        </mxCell>
        <mxCell id="RTjLb2B1KZEINLzgVu64-15" style="edgeStyle=orthogonalEdgeStyle;rounded=0;orthogonalLoop=1;jettySize=auto;html=1;" edge="1" parent="1" source="RTjLb2B1KZEINLzgVu64-2" target="RTjLb2B1KZEINLzgVu64-9">
          <mxGeometry relative="1" as="geometry" />
        </mxCell>
        <mxCell id="RTjLb2B1KZEINLzgVu64-2" value="" style="shape=mxgraph.cisco.misc.front_end_processor;html=1;pointerEvents=1;dashed=0;fillColor=#036897;strokeColor=#ffffff;strokeWidth=2;verticalLabelPosition=bottom;verticalAlign=top;align=center;outlineConnect=0;" vertex="1" parent="1">
          <mxGeometry x="220" y="100" width="90" height="90" as="geometry" />
        </mxCell>
        <mxCell id="RTjLb2B1KZEINLzgVu64-22" style="edgeStyle=orthogonalEdgeStyle;rounded=0;orthogonalLoop=1;jettySize=auto;html=1;" edge="1" parent="1" source="RTjLb2B1KZEINLzgVu64-3" target="RTjLb2B1KZEINLzgVu64-4">
          <mxGeometry relative="1" as="geometry" />
        </mxCell>
        <mxCell id="RTjLb2B1KZEINLzgVu64-3" value="" style="html=1;dashed=0;whitespace=wrap;fillColor=#2875E2;strokeColor=#ffffff;points=[[0.005,0.63,0],[0.1,0.2,0],[0.9,0.2,0],[0.5,0,0],[0.995,0.63,0],[0.72,0.99,0],[0.5,1,0],[0.28,0.99,0]];shape=mxgraph.kubernetes.icon;prIcon=api" vertex="1" parent="1">
          <mxGeometry x="560" y="110" width="100" height="84" as="geometry" />
        </mxCell>
        <mxCell id="RTjLb2B1KZEINLzgVu64-4" value="" style="image;html=1;image=img/lib/clip_art/computers/Database_128x128.png" vertex="1" parent="1">
          <mxGeometry x="740" y="240" width="80" height="80" as="geometry" />
        </mxCell>
        <mxCell id="RTjLb2B1KZEINLzgVu64-21" style="edgeStyle=orthogonalEdgeStyle;rounded=0;orthogonalLoop=1;jettySize=auto;html=1;" edge="1" parent="1" source="RTjLb2B1KZEINLzgVu64-5" target="RTjLb2B1KZEINLzgVu64-4">
          <mxGeometry relative="1" as="geometry" />
        </mxCell>
        <mxCell id="RTjLb2B1KZEINLzgVu64-5" value="" style="html=1;dashed=0;whitespace=wrap;fillColor=#2875E2;strokeColor=#ffffff;points=[[0.005,0.63,0],[0.1,0.2,0],[0.9,0.2,0],[0.5,0,0],[0.995,0.63,0],[0.72,0.99,0],[0.5,1,0],[0.28,0.99,0]];shape=mxgraph.kubernetes.icon;prIcon=api" vertex="1" parent="1">
          <mxGeometry x="557.5" y="238" width="100" height="84" as="geometry" />
        </mxCell>
        <mxCell id="RTjLb2B1KZEINLzgVu64-23" style="edgeStyle=orthogonalEdgeStyle;rounded=0;orthogonalLoop=1;jettySize=auto;html=1;entryX=0.5;entryY=1;entryDx=0;entryDy=0;" edge="1" parent="1" source="RTjLb2B1KZEINLzgVu64-7" target="RTjLb2B1KZEINLzgVu64-4">
          <mxGeometry relative="1" as="geometry" />
        </mxCell>
        <mxCell id="RTjLb2B1KZEINLzgVu64-7" value="" style="html=1;dashed=0;whitespace=wrap;fillColor=#2875E2;strokeColor=#ffffff;points=[[0.005,0.63,0],[0.1,0.2,0],[0.9,0.2,0],[0.5,0,0],[0.995,0.63,0],[0.72,0.99,0],[0.5,1,0],[0.28,0.99,0]];shape=mxgraph.kubernetes.icon;prIcon=api" vertex="1" parent="1">
          <mxGeometry x="560" y="443" width="100" height="84" as="geometry" />
        </mxCell>
        <mxCell id="RTjLb2B1KZEINLzgVu64-18" style="edgeStyle=orthogonalEdgeStyle;rounded=0;orthogonalLoop=1;jettySize=auto;html=1;entryX=0.005;entryY=0.63;entryDx=0;entryDy=0;entryPerimeter=0;" edge="1" parent="1" source="RTjLb2B1KZEINLzgVu64-9" target="RTjLb2B1KZEINLzgVu64-3">
          <mxGeometry relative="1" as="geometry" />
        </mxCell>
        <mxCell id="RTjLb2B1KZEINLzgVu64-19" style="edgeStyle=orthogonalEdgeStyle;rounded=0;orthogonalLoop=1;jettySize=auto;html=1;entryX=0.116;entryY=0.376;entryDx=0;entryDy=0;entryPerimeter=0;" edge="1" parent="1" source="RTjLb2B1KZEINLzgVu64-9" target="RTjLb2B1KZEINLzgVu64-5">
          <mxGeometry relative="1" as="geometry" />
        </mxCell>
        <mxCell id="RTjLb2B1KZEINLzgVu64-20" style="edgeStyle=orthogonalEdgeStyle;rounded=0;orthogonalLoop=1;jettySize=auto;html=1;entryX=0.005;entryY=0.63;entryDx=0;entryDy=0;entryPerimeter=0;" edge="1" parent="1" source="RTjLb2B1KZEINLzgVu64-9" target="RTjLb2B1KZEINLzgVu64-7">
          <mxGeometry relative="1" as="geometry" />
        </mxCell>
        <mxCell id="RTjLb2B1KZEINLzgVu64-9" value="" style="outlineConnect=0;dashed=0;verticalLabelPosition=bottom;verticalAlign=top;align=center;html=1;shape=mxgraph.aws3.api_gateway;fillColor=#D9A741;gradientColor=none;" vertex="1" parent="1">
          <mxGeometry x="386" y="223" width="76.5" height="93" as="geometry" />
        </mxCell>
        <mxCell id="RTjLb2B1KZEINLzgVu64-37" style="edgeStyle=orthogonalEdgeStyle;rounded=0;orthogonalLoop=1;jettySize=auto;html=1;entryX=0;entryY=0.5;entryDx=0;entryDy=0;entryPerimeter=0;" edge="1" parent="1" source="RTjLb2B1KZEINLzgVu64-12" target="RTjLb2B1KZEINLzgVu64-2">
          <mxGeometry relative="1" as="geometry" />
        </mxCell>
        <mxCell id="RTjLb2B1KZEINLzgVu64-38" style="edgeStyle=orthogonalEdgeStyle;rounded=0;orthogonalLoop=1;jettySize=auto;html=1;" edge="1" parent="1" source="RTjLb2B1KZEINLzgVu64-12" target="RTjLb2B1KZEINLzgVu64-13">
          <mxGeometry relative="1" as="geometry" />
        </mxCell>
        <mxCell id="RTjLb2B1KZEINLzgVu64-39" style="edgeStyle=orthogonalEdgeStyle;rounded=0;orthogonalLoop=1;jettySize=auto;html=1;entryX=0;entryY=0.5;entryDx=0;entryDy=0;entryPerimeter=0;" edge="1" parent="1" source="RTjLb2B1KZEINLzgVu64-12" target="RTjLb2B1KZEINLzgVu64-14">
          <mxGeometry relative="1" as="geometry" />
        </mxCell>
        <mxCell id="RTjLb2B1KZEINLzgVu64-12" value="" style="shape=mxgraph.cisco.computers_and_peripherals.web_browser;html=1;pointerEvents=1;dashed=0;fillColor=#036897;strokeColor=#ffffff;strokeWidth=2;verticalLabelPosition=bottom;verticalAlign=top;align=center;outlineConnect=0;" vertex="1" parent="1">
          <mxGeometry x="70" y="262.5" width="62" height="64" as="geometry" />
        </mxCell>
        <mxCell id="RTjLb2B1KZEINLzgVu64-16" style="edgeStyle=orthogonalEdgeStyle;rounded=0;orthogonalLoop=1;jettySize=auto;html=1;" edge="1" parent="1" source="RTjLb2B1KZEINLzgVu64-13" target="RTjLb2B1KZEINLzgVu64-9">
          <mxGeometry relative="1" as="geometry" />
        </mxCell>
        <mxCell id="RTjLb2B1KZEINLzgVu64-13" value="" style="shape=mxgraph.cisco.misc.front_end_processor;html=1;pointerEvents=1;dashed=0;fillColor=#036897;strokeColor=#ffffff;strokeWidth=2;verticalLabelPosition=bottom;verticalAlign=top;align=center;outlineConnect=0;" vertex="1" parent="1">
          <mxGeometry x="220" y="241.5" width="90" height="90" as="geometry" />
        </mxCell>
        <mxCell id="RTjLb2B1KZEINLzgVu64-17" style="edgeStyle=orthogonalEdgeStyle;rounded=0;orthogonalLoop=1;jettySize=auto;html=1;" edge="1" parent="1" source="RTjLb2B1KZEINLzgVu64-14" target="RTjLb2B1KZEINLzgVu64-9">
          <mxGeometry relative="1" as="geometry" />
        </mxCell>
        <mxCell id="RTjLb2B1KZEINLzgVu64-14" value="" style="shape=mxgraph.cisco.misc.front_end_processor;html=1;pointerEvents=1;dashed=0;fillColor=#036897;strokeColor=#ffffff;strokeWidth=2;verticalLabelPosition=bottom;verticalAlign=top;align=center;outlineConnect=0;" vertex="1" parent="1">
          <mxGeometry x="220" y="440" width="90" height="90" as="geometry" />
        </mxCell>
        <mxCell id="RTjLb2B1KZEINLzgVu64-24" value="Authorized User" style="text;html=1;align=center;verticalAlign=middle;resizable=0;points=[];autosize=1;strokeColor=none;rotation=0;" vertex="1" parent="1">
          <mxGeometry x="20" y="190" width="100" height="20" as="geometry" />
        </mxCell>
        <mxCell id="RTjLb2B1KZEINLzgVu64-25" value="(Angular) Fronend Node 1" style="text;html=1;strokeColor=none;fillColor=none;align=center;verticalAlign=middle;whiteSpace=wrap;rounded=0;" vertex="1" parent="1">
          <mxGeometry x="194.5" y="70" width="152" height="20" as="geometry" />
        </mxCell>
        <mxCell id="RTjLb2B1KZEINLzgVu64-26" value="(Angular)Frontend Node 2" style="text;html=1;strokeColor=none;fillColor=none;align=center;verticalAlign=middle;whiteSpace=wrap;rounded=0;" vertex="1" parent="1">
          <mxGeometry x="218" y="332" width="152" height="20" as="geometry" />
        </mxCell>
        <mxCell id="RTjLb2B1KZEINLzgVu64-27" value="(Angular)Frontend Node N" style="text;html=1;strokeColor=none;fillColor=none;align=center;verticalAlign=middle;whiteSpace=wrap;rounded=0;" vertex="1" parent="1">
          <mxGeometry x="220" y="540" width="105" height="20" as="geometry" />
        </mxCell>
        <mxCell id="RTjLb2B1KZEINLzgVu64-29" value="&lt;font style=&quot;font-size: 24px&quot;&gt;.&lt;br&gt;.&lt;br&gt;.&lt;br&gt;.&lt;/font&gt;" style="text;html=1;strokeColor=none;fillColor=none;align=center;verticalAlign=middle;whiteSpace=wrap;rounded=0;" vertex="1" parent="1">
          <mxGeometry x="245" y="352" width="40" height="68" as="geometry" />
        </mxCell>
        <mxCell id="RTjLb2B1KZEINLzgVu64-30" value=".Net Core MVC API Node 1" style="text;html=1;strokeColor=none;fillColor=none;align=center;verticalAlign=middle;whiteSpace=wrap;rounded=0;" vertex="1" parent="1">
          <mxGeometry x="521.25" y="90" width="172.5" height="20" as="geometry" />
        </mxCell>
        <mxCell id="RTjLb2B1KZEINLzgVu64-31" value=".Net Core MVC API Node 2" style="text;html=1;strokeColor=none;fillColor=none;align=center;verticalAlign=middle;whiteSpace=wrap;rounded=0;" vertex="1" parent="1">
          <mxGeometry x="547.5" y="326.5" width="162.5" height="20" as="geometry" />
        </mxCell>
        <mxCell id="RTjLb2B1KZEINLzgVu64-32" value=".Net Core MVC API Node N" style="text;html=1;strokeColor=none;fillColor=none;align=center;verticalAlign=middle;whiteSpace=wrap;rounded=0;" vertex="1" parent="1">
          <mxGeometry x="552.5" y="530" width="157.5" height="20" as="geometry" />
        </mxCell>
        <mxCell id="RTjLb2B1KZEINLzgVu64-33" value="MSSQL Server DB" style="text;html=1;strokeColor=none;fillColor=none;align=center;verticalAlign=middle;whiteSpace=wrap;rounded=0;" vertex="1" parent="1">
          <mxGeometry x="780" y="332" width="60" height="20" as="geometry" />
        </mxCell>
        <mxCell id="RTjLb2B1KZEINLzgVu64-40" value="WSO2 API Gateway" style="text;html=1;strokeColor=none;fillColor=none;align=center;verticalAlign=middle;whiteSpace=wrap;rounded=0;" vertex="1" parent="1">
          <mxGeometry x="410" y="203" width="100" height="20" as="geometry" />
        </mxCell>
      </root>
    </mxGraphModel>
  </diagram>
</mxfile>
